<svg width="161" height="52" viewBox="0 0 161 52" fill="none" xmlns="http://www.w3.org/2000/svg">
<path d="M10.8171 51.9974C10.4029 51.9974 9.99872 51.9921 9.58777 51.9829C8.7365 51.9718 7.88723 51.8978 7.0469 51.7613C6.26334 51.6263 5.50428 51.3752 4.79477 51.0163C4.09174 50.6605 3.45053 50.1939 2.89568 49.6344C2.33276 49.0815 1.8641 48.4402 1.50827 47.736C1.14856 47.0271 0.899616 46.2674 0.770114 45.4831C0.63031 44.6405 0.554691 43.7884 0.543909 42.9343C0.535209 42.6476 0.523926 41.6931 0.523926 41.6931V10.2899C0.523926 10.2899 0.535889 9.34999 0.543909 9.07376C0.554267 8.22102 0.629478 7.37029 0.768891 6.52896C0.898648 5.74256 1.1478 4.98061 1.50773 4.26949C1.86219 3.56572 2.32819 2.92394 2.88766 2.36904C3.44654 1.80886 4.08984 1.33983 4.79409 0.979044C5.50199 0.621382 6.25962 0.372138 7.0416 0.239663C7.8847 0.101847 8.73694 0.0273699 9.59117 0.0168566L10.8178 0H150.522L151.763 0.0172645C152.61 0.027321 153.454 0.10121 154.29 0.238304C155.08 0.372478 155.845 0.623502 156.561 0.983122C157.972 1.71018 159.12 2.86047 159.844 4.27275C160.198 4.97901 160.444 5.73478 160.572 6.51441C160.713 7.36263 160.792 8.22002 160.808 9.07975C160.812 9.46473 160.812 9.87826 160.812 10.2899C160.823 10.7997 160.823 11.2848 160.823 11.7741V40.2246C160.823 40.7184 160.823 41.2003 160.812 41.6862C160.812 42.1283 160.812 42.5332 160.807 42.95C160.791 43.7945 160.713 44.6366 160.574 45.4697C160.447 46.2596 160.2 47.0253 159.84 47.7399C159.482 48.4365 159.016 49.0722 158.46 49.6236C157.904 50.1861 157.262 50.6555 156.557 51.0136C155.843 51.3752 155.079 51.6272 154.29 51.761C153.449 51.8983 152.6 51.9724 151.749 51.9827C151.342 51.9922 150.936 51.9971 150.529 51.9973L149.055 52L10.8171 51.9974Z" fill="black"/>
<path d="M33.008 26.4075C33.0226 25.2729 33.324 24.1604 33.8841 23.1735C34.4442 22.1867 35.2448 21.3575 36.2114 20.7633C35.5973 19.8862 34.7872 19.1645 33.8454 18.6553C32.9036 18.1461 31.856 17.8636 30.7859 17.8301C28.5031 17.5904 26.2901 19.196 25.1267 19.196C23.941 19.196 22.15 17.8539 20.2214 17.8935C18.9739 17.9338 17.7581 18.2966 16.6925 18.9464C15.6269 19.5963 14.7477 20.5111 14.1408 21.6017C11.5117 26.1537 13.4728 32.8433 15.9914 36.5227C17.2514 38.3245 18.7239 40.3369 20.6509 40.2656C22.5363 40.1874 23.2405 39.0632 25.5167 39.0632C27.7717 39.0632 28.4324 40.2656 30.3983 40.2202C32.4217 40.1874 33.6964 38.4105 34.9122 36.5918C35.8176 35.308 36.5142 33.8892 36.9764 32.3878C35.8009 31.8906 34.7977 31.0584 34.0921 29.995C33.3864 28.9315 33.0093 27.6838 33.008 26.4075ZM29.2946 15.4102C30.3978 14.0858 30.9413 12.3836 30.8097 10.665C29.1243 10.8421 27.5674 11.6476 26.4493 12.9211C25.9026 13.5433 25.4839 14.2671 25.2171 15.0511C24.9503 15.8352 24.8407 16.6642 24.8945 17.4906C25.7375 17.4993 26.5716 17.3166 27.3337 16.9562C28.0959 16.5959 28.7664 16.0672 29.2946 15.4102ZM56.843 35.7045H50.4084L48.8632 40.2672H46.1375L52.2324 23.3861H55.0641L61.1588 40.2672H58.3869L56.843 35.7045ZM51.0748 33.5989H56.1753L53.6609 26.1939H53.5905L51.0748 33.5989ZM74.3214 34.1141C74.3214 37.9387 72.2743 40.3959 69.1852 40.3959C68.4026 40.4369 67.6243 40.2566 66.9395 39.8758C66.2546 39.495 65.6908 38.929 65.3126 38.2426H65.2542V44.3388H62.7279V27.9595H65.1733V30.0067H65.2198C65.6153 29.3236 66.1886 28.7606 66.8787 28.3774C67.5688 27.9943 68.3498 27.8054 69.1387 27.8308C72.2623 27.8308 74.3214 30.3002 74.3214 34.1141ZM71.7247 34.1141C71.7247 31.6223 70.4371 29.9841 68.4723 29.9841C66.542 29.9841 65.2437 31.6567 65.2437 34.114C65.2437 36.5939 66.542 38.2547 68.4723 38.2547C70.4371 38.2547 71.7247 36.6286 71.7247 34.1141ZM87.8676 34.1141C87.8676 37.9387 85.8206 40.3959 82.7314 40.3959C81.9489 40.4369 81.1706 40.2566 80.4857 39.8758C79.8009 39.495 79.2371 38.929 78.859 38.2426H78.8005V44.3388H76.2742V27.9595H78.7195V30.0067H78.766C79.1615 29.3236 79.7348 28.7606 80.4249 28.3774C81.115 27.9943 81.896 27.8054 82.6849 27.8308C85.8087 27.8308 87.8676 30.3002 87.8676 34.1141ZM85.271 34.1141C85.271 31.6223 83.9833 29.9841 82.0185 29.9841C80.0882 29.9841 78.7899 31.6567 78.7899 34.114C78.7899 36.5939 80.0882 38.2547 82.0185 38.2547C83.9833 38.2547 85.271 36.6286 85.271 34.1141ZM96.8207 35.5638C97.0079 37.2378 98.6341 38.337 100.856 38.337C102.986 38.337 104.518 37.2378 104.518 35.7283C104.518 34.4179 103.594 33.6334 101.406 33.0958L99.2181 32.5687C96.1184 31.82 94.6794 30.3703 94.6794 28.0179C94.6794 25.1052 97.2176 23.1047 100.822 23.1047C104.389 23.1047 106.834 25.1052 106.917 28.0179H104.366C104.214 26.3333 102.821 25.3163 100.786 25.3163C98.7509 25.3163 97.3583 26.3452 97.3583 27.8426C97.3583 29.0362 98.2478 29.7385 100.424 30.276L102.283 30.7327C105.747 31.5518 107.186 32.9431 107.186 35.4122C107.186 38.5705 104.67 40.5486 100.669 40.5486C96.9254 40.5486 94.3978 38.6169 94.2346 35.5637L96.8207 35.5638ZM112.638 25.047V27.9595H114.979V29.9602H112.638V36.7452C112.638 37.7993 113.107 38.2905 114.136 38.2905C114.414 38.2856 114.691 38.2661 114.967 38.232V40.2208C114.504 40.3072 114.034 40.3463 113.564 40.3375C111.072 40.3375 110.1 39.4017 110.1 37.0147V29.9602H108.311V27.9595H110.1V25.047H112.638ZM116.334 34.1141C116.334 30.2416 118.615 27.8082 122.172 27.8082C125.74 27.8082 128.01 30.2416 128.01 34.1141C128.01 37.9971 125.752 40.4199 122.171 40.4199C118.592 40.4199 116.334 37.9971 116.334 34.1141ZM125.436 34.1141C125.436 31.4577 124.219 29.8898 122.171 29.8898C120.124 29.8898 118.908 31.4695 118.908 34.1141C118.908 36.7811 120.124 38.337 122.171 38.337C124.219 38.337 125.436 36.7811 125.436 34.1141ZM130.093 27.9595H132.502V30.0544H132.561C132.724 29.4001 133.107 28.8219 133.646 28.417C134.185 28.012 134.848 27.8051 135.521 27.8308C135.812 27.8298 136.103 27.8614 136.387 27.925V30.2881C136.019 30.1758 135.636 30.1242 135.252 30.1354C134.885 30.1205 134.519 30.1852 134.179 30.3251C133.84 30.4649 133.534 30.6767 133.284 30.9457C133.034 31.2147 132.845 31.5346 132.73 31.8836C132.616 32.2325 132.578 32.6021 132.619 32.9671V40.2672H130.093V27.9595ZM148.035 36.6523C147.695 38.8866 145.519 40.4199 142.735 40.4199C139.155 40.4199 136.932 38.021 136.932 34.1724C136.932 30.312 139.167 27.8082 142.629 27.8082C146.034 27.8082 148.175 30.1474 148.175 33.8791V34.7446H139.483V34.8973C139.443 35.3502 139.499 35.8065 139.649 36.2359C139.799 36.6652 140.038 37.0578 140.351 37.3876C140.664 37.7173 141.044 37.9766 141.465 38.1483C141.886 38.32 142.339 38.4002 142.794 38.3835C143.391 38.4394 143.99 38.3012 144.502 37.9892C145.014 37.6773 145.412 37.2084 145.636 36.6523H148.035ZM139.495 32.979H145.648C145.67 32.5717 145.609 32.1642 145.466 31.7819C145.324 31.3996 145.104 31.0508 144.821 30.7575C144.537 30.4642 144.196 30.2326 143.819 30.0774C143.442 29.9221 143.037 29.8465 142.629 29.8552C142.217 29.8528 141.81 29.9318 141.429 30.0878C141.048 30.2438 140.702 30.4737 140.411 30.7641C140.119 31.0545 139.889 31.3998 139.731 31.7799C139.574 32.1601 139.494 32.5676 139.495 32.979ZM50.7582 10.6796C51.2878 10.6416 51.8193 10.7216 52.3143 10.9138C52.8093 11.1061 53.2554 11.4058 53.6205 11.7914C53.9856 12.177 54.2606 12.6388 54.4257 13.1435C54.5907 13.6482 54.6416 14.1833 54.5748 14.7101C54.5748 17.3014 53.1742 18.791 50.7582 18.791H47.8282V10.6795L50.7582 10.6796ZM49.0881 17.6438H50.6175C50.9959 17.6664 51.3747 17.6044 51.7261 17.4621C52.0775 17.3199 52.3929 17.1011 52.6491 16.8217C52.9053 16.5422 53.096 16.2092 53.2073 15.8467C53.3186 15.4843 53.3476 15.1016 53.2924 14.7265C53.3436 14.3529 53.3116 13.9726 53.1986 13.6128C53.0857 13.2531 52.8945 12.9227 52.6388 12.6455C52.3832 12.3683 52.0694 12.151 51.7199 12.0093C51.3705 11.8676 50.994 11.805 50.6175 11.8258H49.0881V17.6438ZM55.998 15.7276C55.9595 15.3253 56.0055 14.9195 56.1331 14.536C56.2606 14.1526 56.4669 13.8 56.7387 13.501C57.0105 13.2019 57.3418 12.963 57.7114 12.7995C58.0809 12.636 58.4806 12.5515 58.8847 12.5515C59.2888 12.5515 59.6885 12.636 60.058 12.7995C60.4276 12.963 60.7589 13.2019 61.0307 13.501C61.3025 13.8 61.5088 14.1526 61.6363 14.536C61.7639 14.9195 61.8099 15.3253 61.7714 15.7276C61.8107 16.1303 61.7653 16.5369 61.6382 16.921C61.511 17.3052 61.3048 17.6585 61.033 17.9582C60.7611 18.2579 60.4295 18.4974 60.0595 18.6613C59.6895 18.8252 59.2894 18.9099 58.8847 18.9099C58.48 18.9099 58.0799 18.8252 57.7099 18.6613C57.3399 18.4974 57.0083 18.2579 56.7364 17.9582C56.4646 17.6585 56.2584 17.3052 56.1312 16.921C56.0041 16.5369 55.9587 16.1303 55.998 15.7276ZM60.5289 15.7276C60.5289 14.4007 59.9328 13.6247 58.8867 13.6247C57.8366 13.6247 57.2459 14.4007 57.2459 15.7276C57.2459 17.0651 57.8367 17.8351 58.8867 17.8351C59.9328 17.8351 60.5289 17.0598 60.5289 15.7276ZM69.4461 18.7909H68.1927L66.9276 14.2826H66.8321L65.5723 18.7909H64.331L62.6437 12.6695H63.869L64.9656 17.3404H65.0559L66.3144 12.6695H67.4733L68.7318 17.3404H68.8274L69.9186 12.6695H71.1267L69.4461 18.7909ZM72.5458 12.6696H73.7087V13.642H73.799C73.9521 13.2927 74.2104 12.9999 74.5379 12.8044C74.8654 12.6089 75.2457 12.5204 75.6258 12.5514C75.9236 12.529 76.2227 12.5739 76.5008 12.6828C76.7789 12.7917 77.029 12.9617 77.2325 13.1804C77.436 13.399 77.5876 13.6606 77.6763 13.9459C77.7649 14.2311 77.7883 14.5326 77.7446 14.8281V18.7908H76.5364V15.1315C76.5364 14.1478 76.1089 13.6586 75.2155 13.6586C75.0133 13.6492 74.8114 13.6836 74.6238 13.7595C74.4361 13.8354 74.2671 13.951 74.1282 14.0983C73.9894 14.2457 73.8841 14.4213 73.8195 14.6131C73.7549 14.805 73.7325 15.0085 73.7539 15.2098V18.7909H72.5458V12.6696ZM79.6695 10.2799H80.8774V18.7909H79.6695V10.2799ZM82.5569 15.7276C82.5184 15.3253 82.5644 14.9193 82.6919 14.5358C82.8195 14.1523 83.0259 13.7997 83.2977 13.5007C83.5695 13.2016 83.9009 12.9626 84.2705 12.7991C84.6401 12.6355 85.0398 12.5511 85.444 12.5511C85.8481 12.5511 86.2478 12.6355 86.6174 12.7991C86.987 12.9626 87.3184 13.2016 87.5902 13.5007C87.8621 13.7997 88.0684 14.1523 88.196 14.5358C88.3235 14.9193 88.3696 15.3253 88.3311 15.7276C88.3702 16.1303 88.3246 16.5367 88.1973 16.9207C88.0701 17.3048 87.8638 17.6579 87.5919 17.9575C87.32 18.2571 86.9885 18.4965 86.6186 18.6603C86.2486 18.8242 85.8485 18.9088 85.444 18.9088C85.0394 18.9088 84.6393 18.8242 84.2694 18.6603C83.8994 18.4965 83.5679 18.2571 83.296 17.9575C83.0241 17.6579 82.8179 17.3048 82.6906 16.9207C82.5633 16.5367 82.5177 16.1303 82.5569 15.7276ZM87.0877 15.7276C87.0877 14.4007 86.4917 13.6247 85.4456 13.6247C84.3954 13.6247 83.8048 14.4007 83.8048 15.7276C83.8048 17.0651 84.3956 17.8351 85.4456 17.8351C86.4917 17.8351 87.0877 17.0598 87.0877 15.7276ZM89.6028 17.0598C89.6028 15.9579 90.4232 15.3226 91.8795 15.2324L93.5376 15.1368V14.6084C93.5376 13.9619 93.1102 13.5969 92.2845 13.5969C91.6101 13.5969 91.1427 13.8444 91.0087 14.2773H89.8391C89.9625 13.2258 90.9516 12.5515 92.3402 12.5515C93.8749 12.5515 94.7404 13.3155 94.7404 14.6084V18.7909H93.5774V17.9307H93.4819C93.2878 18.2392 93.0154 18.4908 92.6924 18.6596C92.3694 18.8285 92.0074 18.9086 91.6433 18.8918C91.3863 18.9185 91.1266 18.8911 90.8808 18.8113C90.6351 18.7315 90.4088 18.6011 90.2166 18.4285C90.0244 18.2559 89.8704 18.0449 89.7647 17.8092C89.659 17.5734 89.6038 17.3182 89.6028 17.0598ZM93.5376 16.5367V16.0249L92.0428 16.1205C91.1998 16.1769 90.8174 16.4637 90.8174 17.0033C90.8174 17.5542 91.2954 17.8749 91.9525 17.8749C92.1451 17.8944 92.3396 17.875 92.5245 17.8178C92.7094 17.7605 92.8809 17.6667 93.0288 17.5419C93.1766 17.417 93.2979 17.2637 93.3853 17.091C93.4727 16.9183 93.5245 16.7298 93.5376 16.5367ZM96.3282 15.7276C96.3282 13.7933 97.3224 12.5681 98.869 12.5681C99.2516 12.5504 99.6313 12.6421 99.9637 12.8322C100.296 13.0224 100.568 13.3033 100.746 13.642H100.837V10.2798H102.044V18.7908H100.887V17.8235H100.791C100.599 18.16 100.318 18.4374 99.9792 18.6256C99.6404 18.8139 99.2565 18.9059 98.8692 18.8916C97.3118 18.8916 96.3282 17.6664 96.3282 15.7276ZM97.5761 15.7276C97.5761 17.0258 98.1881 17.8072 99.2115 17.8072C100.23 17.8072 100.859 17.0147 100.859 15.7328C100.859 14.4571 100.223 13.6533 99.2115 13.6533C98.1946 13.6533 97.5761 14.4398 97.5761 15.7276ZM107.043 15.7276C107.004 15.3253 107.05 14.9195 107.178 14.536C107.305 14.1526 107.512 13.8 107.783 13.501C108.055 13.2019 108.387 12.963 108.756 12.7995C109.126 12.636 109.525 12.5515 109.929 12.5515C110.334 12.5515 110.733 12.636 111.103 12.7995C111.472 12.963 111.804 13.2019 112.075 13.501C112.347 13.8 112.554 14.1526 112.681 14.536C112.809 14.9195 112.855 15.3253 112.816 15.7276C112.855 16.1303 112.81 16.5369 112.683 16.921C112.556 17.3052 112.35 17.6585 112.078 17.9582C111.806 18.2579 111.474 18.4974 111.104 18.6613C110.734 18.8252 110.334 18.9099 109.929 18.9099C109.525 18.9099 109.125 18.8252 108.755 18.6613C108.385 18.4974 108.053 18.2579 107.781 17.9582C107.509 17.6585 107.303 17.3052 107.176 16.921C107.049 16.5369 107.003 16.1303 107.043 15.7276ZM111.574 15.7276C111.574 14.4007 110.978 13.6247 109.931 13.6247C108.881 13.6247 108.291 14.4007 108.291 15.7276C108.291 17.0651 108.881 17.8351 109.931 17.8351C110.978 17.8351 111.574 17.0598 111.574 15.7276ZM114.437 12.6696H115.6V13.642H115.69C115.843 13.2927 116.102 12.9999 116.429 12.8044C116.757 12.6089 117.137 12.5204 117.517 12.5514C117.815 12.529 118.114 12.5739 118.392 12.6828C118.67 12.7917 118.92 12.9617 119.124 13.1804C119.327 13.399 119.479 13.6606 119.568 13.9459C119.656 14.2311 119.68 14.5326 119.636 14.8281V18.7908H118.428V15.1315C118.428 14.1478 118 13.6586 117.107 13.6586C116.905 13.6492 116.703 13.6836 116.515 13.7595C116.327 13.8354 116.158 13.951 116.02 14.0983C115.881 14.2457 115.775 14.4213 115.711 14.6131C115.646 14.805 115.624 15.0085 115.645 15.2098V18.7909H114.437L114.437 12.6696ZM126.462 11.1456V12.6975H127.788V13.715H126.462V16.8626C126.462 17.5038 126.726 17.7847 127.328 17.7847C127.482 17.7841 127.635 17.7748 127.788 17.7567V18.763C127.571 18.8018 127.351 18.8225 127.131 18.8247C125.788 18.8247 125.253 18.3521 125.253 17.172V13.715H124.281V12.6974H125.253V11.1457L126.462 11.1456ZM129.438 10.2799H130.636V13.6533H130.731C130.892 13.3007 131.157 13.0063 131.491 12.8101C131.825 12.6138 132.212 12.5253 132.598 12.5567C132.894 12.5405 133.19 12.59 133.465 12.7015C133.74 12.8131 133.987 12.9839 134.189 13.2019C134.39 13.4199 134.541 13.6796 134.63 13.9626C134.72 14.2455 134.746 14.5447 134.706 14.8388V18.7909H133.497V15.1368C133.497 14.159 133.041 13.6639 132.188 13.6639C131.98 13.6469 131.771 13.6754 131.576 13.7476C131.38 13.8197 131.203 13.9336 131.056 14.0814C130.91 14.2293 130.797 14.4074 130.726 14.6033C130.655 14.7992 130.628 15.0083 130.647 15.2158V18.7909H129.438V10.2799ZM141.75 17.138C141.586 17.6975 141.23 18.1814 140.746 18.5052C140.261 18.8289 139.677 18.9719 139.098 18.909C138.694 18.9197 138.294 18.8424 137.923 18.6827C137.553 18.5229 137.221 18.2844 136.952 17.9838C136.683 17.6832 136.483 17.3276 136.365 16.9418C136.247 16.556 136.215 16.1491 136.27 15.7495C136.216 15.3486 136.249 14.9409 136.367 14.5539C136.484 14.1669 136.684 13.8096 136.951 13.5064C137.219 13.2031 137.549 12.9609 137.918 12.7961C138.287 12.6314 138.688 12.5479 139.092 12.5514C140.796 12.5514 141.823 13.715 141.823 15.6372V16.0588H137.501V16.1265C137.482 16.3511 137.51 16.5772 137.584 16.7903C137.657 17.0034 137.774 17.1987 137.928 17.3638C138.081 17.5289 138.268 17.6601 138.475 17.7491C138.682 17.838 138.905 17.8826 139.131 17.8801C139.42 17.9148 139.713 17.8628 139.972 17.7306C140.231 17.5985 140.445 17.3922 140.587 17.138H141.75ZM137.501 15.1654H140.592C140.608 14.9599 140.58 14.7536 140.511 14.5595C140.441 14.3655 140.332 14.1882 140.19 14.0388C140.048 13.8895 139.877 13.7715 139.687 13.6924C139.496 13.6133 139.292 13.5749 139.086 13.5796C138.877 13.577 138.669 13.6162 138.476 13.695C138.282 13.7737 138.107 13.8905 137.959 14.0382C137.811 14.186 137.694 14.3619 137.616 14.5555C137.537 14.749 137.498 14.9564 137.501 15.1654Z" fill="white"/>
</svg>
