<svg width="99" height="35" viewBox="0 0 99 35" fill="none" xmlns="http://www.w3.org/2000/svg">
<g clip-path="url(#clip0_168_321)">
<path d="M90.5374 0.583252C88.8108 0.583252 87.5578 1.95409 87.5578 3.48592C87.5578 5.01892 88.8108 6.39092 90.5374 6.39092C92.2641 6.39092 93.5964 5.14142 93.5964 3.48592C93.5964 1.83392 92.2629 0.583252 90.5374 0.583252ZM88.3056 27.9136H92.8451V9.74508H88.3056V27.9136ZM47.6484 9.29242C42.1628 9.29242 37.7726 13.1133 37.7726 18.8288C37.7726 24.5431 42.1628 28.3686 47.6484 28.3686C50.1521 28.3686 52.5076 27.5904 54.4758 25.6736L51.6093 22.8071C50.5406 23.9318 49.1674 24.7333 47.1993 24.7333C44.6618 24.7333 42.6178 23.1034 42.3133 20.4189H56.1674V19.1706C56.1674 12.8473 52.7258 9.29242 47.6484 9.29242ZM42.3133 17.0123C42.6551 14.3989 44.3211 12.6956 47.0068 12.6956C49.8464 12.6956 51.5871 14.3639 51.6268 17.0123H42.3133ZM62.5024 14.8551C62.5024 13.4913 63.9409 12.9243 65.1543 12.9243C66.6943 12.9243 67.8283 13.5624 68.6974 14.7641L71.5861 11.8778C70.0904 10.0111 67.6113 9.29242 65.2651 9.29242C61.5936 9.29242 57.9594 11.1066 57.9594 15.1584C57.9594 22.0861 67.7629 19.1321 67.7629 22.8783C67.7629 24.3168 66.0596 24.9596 64.7354 24.9596C62.8104 24.9596 61.6006 24.0193 60.4304 22.7371L57.4963 25.6701C59.3396 27.6663 61.7196 28.3686 64.4706 28.3686C68.1794 28.3686 72.3071 26.8531 72.3071 22.5376C72.3071 15.4594 62.5024 18.1101 62.5024 14.8551ZM79.0108 12.6198H78.9384V9.74508H74.3978V27.9136H78.9384V18.1836C78.9384 17.2013 79.5428 13.6044 83.8209 13.6044C84.4789 13.6044 85.1358 13.7351 85.8253 13.8996L86.0026 9.55258C85.4776 9.40442 84.9514 9.29242 84.3903 9.29242C82.0033 9.29242 79.9954 10.5408 79.0108 12.6198ZM17.5111 3.22692C16.0913 3.18375 15.2571 3.36692 14.4183 3.53025C14.1663 3.46492 13.6949 3.53375 13.6681 4.08092C13.6681 4.37492 13.7614 4.60242 13.9481 4.73659C14.1336 4.86959 15.6899 6.01992 16.8333 7.23559C16.2849 7.29625 15.6899 7.39658 15.0786 7.52258C14.3961 6.04792 12.2028 7.38959 10.7456 7.44792C10.5753 7.45492 10.4119 7.47709 10.2428 7.48875C10.0829 6.25675 9.9686 4.98042 9.99777 4.08209C11.8854 3.01225 15.5371 2.22359 18.0174 2.18509L18.4526 2.17342C18.8166 2.16992 18.8458 1.88059 18.5028 1.83392C15.4216 1.41275 12.7523 2.03575 10.0106 3.16975C7.15694 4.37259 3.52627 7.13992 1.31427 12.3619C0.796271 13.8168 -1.27456 20.7561 2.4051 26.7119C5.39177 31.5443 9.23594 33.8438 13.9399 34.5006C18.6346 35.1551 21.1814 34.5881 24.1506 33.2698C31.0934 30.1874 36.3959 18.6176 31.0923 10.2316C28.9993 6.35942 23.5148 2.96442 17.5111 3.22692ZM14.8756 8.64842C15.7835 8.44356 16.7041 8.30012 17.6313 8.21909C18.4064 9.13774 19.0894 10.1303 19.6706 11.1824C18.7314 11.6374 17.4796 11.9851 16.9698 12.7131C16.7586 13.0164 16.7061 13.4283 16.6991 13.8739C15.1508 14.2423 13.6374 14.7443 12.1759 15.3743C11.6474 13.8203 11.1843 12.2709 10.8646 10.8919C12.3766 9.44875 14.1464 9.21425 14.8756 8.64842ZM22.5873 27.1751C22.1743 27.2194 21.7636 27.2719 21.4019 27.3268C20.5036 27.4679 19.3463 27.7689 18.2694 28.1703C17.6511 27.1868 15.9944 24.7974 15.1579 22.9938C16.8403 22.1666 19.1911 21.4736 21.8954 21.3091C22.1171 21.6941 22.3621 22.0791 22.7004 22.4244C23.5836 23.3274 22.1859 24.6213 22.5873 27.1751ZM12.5504 16.5118C13.8571 15.8934 15.2338 15.3824 16.7038 15.0114C16.6944 15.3999 16.6513 15.7686 16.4914 16.0649C16.2628 16.4919 16.3678 17.7309 16.6478 18.1358C17.5286 19.4179 18.9904 18.7051 20.0906 19.1659C20.5958 19.3771 20.9318 19.7283 21.2153 20.1459C18.9123 20.2906 16.6536 20.8273 14.5583 21.7909C13.4814 19.5043 12.5516 16.5129 12.5516 16.5129L12.5504 16.5118ZM13.5211 22.2728C13.4394 22.3113 13.3519 22.3591 13.2679 22.4011C12.0147 22.0459 10.7474 21.7423 9.46927 21.4911C8.30844 21.2531 8.26644 21.3161 6.95977 21.6953C6.7731 21.7489 6.5946 21.7979 6.42077 21.8504C6.23945 21.3861 6.06636 20.9186 5.9016 20.4481C7.57694 19.1578 9.26627 18.0751 11.5261 16.9656C12.1094 18.7051 12.9436 21.0291 13.5211 22.2728ZM14.4171 27.5554C14.7589 26.6629 15.0249 26.0026 15.1229 25.3504C15.7868 26.4681 16.5789 27.6838 17.1926 28.6346C16.2371 29.0978 15.1253 29.8129 14.0753 30.6004C14.1476 29.3906 14.1721 28.1924 14.4171 27.5554ZM20.6401 10.4801C20.6284 10.4964 20.6074 10.5104 20.5934 10.5268C20.1036 9.67716 19.5677 8.85499 18.9881 8.06392C20.1629 7.99275 21.6084 8.05458 22.9244 8.18992C21.7414 8.61342 21.2199 9.65292 20.6401 10.4801ZM10.1074 11.7564C10.1296 11.7261 10.1529 11.7016 10.1739 11.6724C10.4469 13.0514 10.7724 14.1924 11.2076 15.7768C9.57194 16.4978 6.67977 18.2828 5.40227 19.2441C5.17127 18.6584 4.93094 17.8278 4.7151 16.9738C5.0056 16.1139 5.59944 15.5108 6.4371 15.4279C7.86977 15.2844 9.0971 13.1529 10.1074 11.7564ZM3.79577 9.67509C5.3276 7.53075 7.40777 5.44358 9.30594 4.40175C9.28727 4.86842 9.40627 6.22992 9.56027 7.54359C8.89527 7.61009 8.23727 7.69292 7.58627 7.78975C6.04691 9.10054 4.80749 10.7271 3.9521 12.5591C3.8156 11.3294 3.74327 10.3039 3.79577 9.67509ZM2.79594 11.3528C2.79594 11.3528 2.86827 12.5894 2.92777 13.4913C2.92777 13.4913 2.0166 14.5249 1.5511 15.3463C1.7366 13.6628 2.1321 12.7948 2.79594 11.3528ZM11.7373 32.7681C7.01694 31.2899 3.51927 27.3116 2.27094 23.1396C1.5473 20.692 1.28967 18.1304 1.51144 15.5878C1.57677 15.5994 1.72844 15.6718 1.95477 15.6076C2.11227 15.4991 2.67344 15.1059 3.07127 14.7583L3.09227 14.9111C2.82394 15.9261 2.65944 16.9819 2.6256 18.0728C3.05727 18.5278 3.5636 19.2838 4.12594 20.0643C3.76427 20.3326 3.0701 20.8121 2.90677 20.9288C2.42844 21.2694 2.4331 21.8073 2.77377 22.1129C2.9616 22.2809 3.34777 22.2109 3.48894 22.1013C3.9066 21.7688 4.25427 21.5028 4.7326 21.2029C4.9076 21.6614 5.07327 22.0756 5.23427 22.4699C5.0301 22.6893 4.88427 22.9786 4.83527 23.4009C4.67777 24.7683 5.97744 25.8416 7.07294 26.1543C7.11377 26.1659 7.14294 26.1706 7.1826 26.1811C7.24094 26.2698 7.29344 26.3526 7.35527 26.4424C6.7871 26.8834 6.3986 27.3349 6.13144 27.6826C5.97744 27.8833 5.80477 28.1842 5.94477 28.2438C6.08827 28.3021 6.56894 28.2437 6.7836 28.2041C7.32727 28.0991 7.74727 27.4971 8.12294 27.2754C8.57444 27.8984 9.30944 28.6988 10.0736 29.4688C10.1074 29.6088 10.1378 29.7558 10.1763 29.8783C10.3221 30.3484 10.5181 30.8162 10.7538 31.2736C11.3033 31.5303 11.8761 31.7426 12.4618 31.9281C12.2041 32.1941 11.9618 32.4745 11.7361 32.7681H11.7373ZM12.8911 33.1333C13.0719 32.8964 13.2551 32.6036 13.4803 32.4029C14.0263 32.7646 14.6108 33.1787 15.0763 33.4459C14.3588 33.3643 13.5164 33.3468 12.8911 33.1333ZM16.5229 33.4949C16.5229 33.4949 14.6516 32.2559 14.1791 31.7788C15.1159 31.0006 16.6314 30.0766 17.8284 29.5749C18.2974 30.3099 19.8433 32.4998 20.4628 33.2056C19.3393 33.4016 17.7678 33.5486 16.5229 33.4949ZM24.3443 31.7333C24.0106 31.9538 22.4029 32.6829 21.7729 32.8859C20.7186 31.7247 19.7662 30.4748 18.9263 29.1503C19.9109 28.7373 21.4264 28.3686 22.8299 28.1936C22.9571 28.5926 23.1216 29.0149 23.3479 29.4699C23.5696 29.9156 23.8274 30.2423 24.1051 30.4651C24.2043 30.4033 24.2964 30.3309 24.3944 30.2668C24.3874 30.7568 24.3734 31.2538 24.3443 31.7333ZM23.9593 6.67675C23.6443 6.47609 23.2511 6.55075 23.4144 6.90192C23.4763 7.03842 23.7166 7.26825 23.9126 7.49925C22.7623 7.18192 19.7033 6.94042 18.2473 7.07459C17.2964 6.00592 16.2126 4.70859 14.9094 3.84875C20.7416 3.48592 25.9811 5.89742 28.2946 8.73242C27.5234 8.33109 25.8598 7.75942 25.1831 7.60892C24.8179 7.23675 24.3571 6.93225 23.9581 6.67559L23.9593 6.67675ZM25.2356 31.2526C25.2624 30.7778 25.2823 30.1769 25.2974 29.6239C25.8656 29.1829 26.4011 28.7022 26.8958 28.1796C27.5339 28.2531 28.1721 28.3616 28.5606 28.4596C27.6973 29.5516 26.5049 30.4616 25.2356 31.2526ZM29.6981 26.9079C29.5581 27.2031 29.1988 27.7106 28.9596 27.9509C28.5956 27.8039 28.0484 27.6499 27.4756 27.5134C27.5666 27.4038 27.6658 27.3011 27.7556 27.1879C28.0683 25.0926 27.3613 24.4229 28.2456 22.5049L28.4463 22.0721C28.9339 22.2098 29.3936 22.3603 29.7914 22.5224C29.8416 23.2411 29.8381 25.7051 29.6981 26.9079ZM28.8721 21.1714C29.1008 20.6966 29.3528 20.1914 29.6246 19.6898C29.6958 20.3279 29.7471 20.9498 29.7774 21.5133C29.4809 21.3858 29.1788 21.2718 28.8721 21.1714ZM31.4598 22.4851L31.2334 23.3671C31.0736 23.9679 30.5416 25.3878 30.2628 25.9606C30.3689 25.1871 30.4623 23.1793 30.4354 22.7756C30.6221 22.8328 31.0211 22.6041 31.0876 22.3778C31.1541 22.1503 30.4296 21.8003 30.4296 21.8003C30.4313 20.747 30.3643 19.6948 30.2289 18.6503C30.3946 18.3819 30.5626 18.1229 30.7353 17.8861C30.7033 17.2695 30.6308 16.6557 30.5183 16.0486C30.6641 16.0964 30.7983 16.1349 30.8951 16.1361C31.2253 16.1408 31.2241 15.9144 31.1191 15.7884C31.0514 15.7068 30.7364 15.5108 30.3689 15.2984C29.8301 12.9885 28.7142 10.8531 27.1256 9.09175C27.7474 9.32742 28.5419 9.65175 29.1719 9.99475C29.6503 10.5968 31.0211 11.9489 31.7526 15.7348C32.4106 19.1438 31.6826 21.7349 31.4598 22.4851ZM94.7479 10.0298V9.74975H96.1689V10.0298H95.6229V11.4193H95.2928V10.0298H94.7479ZM96.9296 9.74975L97.3554 10.9456L97.7848 9.75092H98.2584V11.4193H97.9528V10.0729L97.4908 11.4193H97.2236L96.7569 10.0729V11.4193H96.4524V9.75092L96.9296 9.74975Z" fill="black"/>
</g>
<defs>
<clipPath id="clip0_168_321">
<rect width="98" height="35" fill="white" transform="translate(0.380859)"/>
</clipPath>
</defs>
</svg>
