<svg width="26" height="26" viewBox="0 0 26 26" fill="none" xmlns="http://www.w3.org/2000/svg">
<path d="M12.999 7.9917C11.6704 7.9917 10.3963 8.51947 9.45682 9.4589C8.51739 10.3983 7.98962 11.6725 7.98962 13.001C7.98962 14.3296 8.51739 15.6037 9.45682 16.5432C10.3963 17.4826 11.6704 18.0104 12.999 18.0104C14.3275 18.0104 15.6017 17.4826 16.5411 16.5432C17.4805 15.6037 18.0083 14.3296 18.0083 13.001C18.0083 11.6725 17.4805 10.3983 16.5411 9.4589C15.6017 8.51947 14.3275 7.9917 12.999 7.9917ZM12.999 16.2543C12.1359 16.2543 11.3081 15.9114 10.6978 15.3011C10.0875 14.6908 9.74462 13.8631 9.74462 12.9999C9.74462 12.1368 10.0875 11.3091 10.6978 10.6988C11.3081 10.0885 12.1359 9.74562 12.999 9.74562C13.8621 9.74562 14.6898 10.0885 15.3001 10.6988C15.9104 11.3091 16.2533 12.1368 16.2533 12.9999C16.2533 13.8631 15.9104 14.6908 15.3001 15.3011C14.6898 15.9114 13.8621 16.2543 12.999 16.2543Z" fill="#007399"/>
<path d="M18.2065 8.97531C18.8515 8.97531 19.3744 8.45246 19.3744 7.80748C19.3744 7.1625 18.8515 6.63965 18.2065 6.63965C17.5616 6.63965 17.0387 7.1625 17.0387 7.80748C17.0387 8.45246 17.5616 8.97531 18.2065 8.97531Z" fill="#007399"/>
<path d="M22.2441 6.6202C21.9933 5.97257 21.6101 5.38443 21.1189 4.89343C20.6277 4.40244 20.0394 4.01941 19.3917 3.76887C18.6337 3.48434 17.833 3.33049 17.0235 3.31387C15.9803 3.26837 15.6499 3.25537 13.0044 3.25537C10.3589 3.25537 10.0198 3.25537 8.9852 3.31387C8.17637 3.32964 7.37618 3.48352 6.6192 3.76887C5.97129 4.01912 5.38286 4.40205 4.89164 4.89308C4.40043 5.38411 4.01728 5.9724 3.76678 6.6202C3.48219 7.37812 3.3287 8.17894 3.31286 8.98837C3.26628 10.0305 3.2522 10.361 3.2522 13.0075C3.2522 15.653 3.2522 15.99 3.31286 17.0267C3.32911 17.837 3.48186 18.6365 3.76678 19.396C4.01798 20.0435 4.4015 20.6316 4.89284 21.1225C5.38417 21.6135 5.97252 21.9966 6.62028 22.2473C7.37583 22.5432 8.17635 22.7081 8.98736 22.7348C10.0306 22.7803 10.361 22.7944 13.0065 22.7944C15.652 22.7944 15.9911 22.7944 17.0257 22.7348C17.8351 22.7183 18.6358 22.5649 19.3939 22.2809C20.0414 22.0297 20.6295 21.6464 21.1207 21.1553C21.6118 20.6641 21.9952 20.076 22.2463 19.4285C22.5312 18.6701 22.6839 17.8706 22.7002 17.0603C22.7468 16.0181 22.7609 15.6877 22.7609 13.0411C22.7609 10.3945 22.7609 10.0587 22.7002 9.02195C22.6876 8.20108 22.5333 7.38856 22.2441 6.6202ZM20.9246 16.9465C20.9176 17.5709 20.8037 18.1894 20.5877 18.7752C20.425 19.1965 20.1759 19.579 19.8565 19.8983C19.5371 20.2175 19.1544 20.4663 18.733 20.6288C18.1537 20.8438 17.5418 20.9577 16.9239 20.9657C15.8947 21.0134 15.6044 21.0253 12.9654 21.0253C10.3242 21.0253 10.0544 21.0253 9.00578 20.9657C8.3882 20.9581 7.77655 20.8442 7.1977 20.6288C6.77486 20.4674 6.39062 20.219 6.06983 19.8997C5.74904 19.5804 5.49885 19.1973 5.33545 18.7752C5.12251 18.1957 5.00862 17.5844 4.99853 16.9671C4.95195 15.938 4.94111 15.6476 4.94111 13.0086C4.94111 10.3685 4.94111 10.0988 4.99853 9.04904C5.00553 8.42506 5.11949 7.80691 5.33545 7.22145C5.66586 6.3667 6.34295 5.69395 7.1977 5.36679C7.77684 5.15244 8.38831 5.0385 9.00578 5.02987C10.036 4.98329 10.3253 4.97029 12.9654 4.97029C15.6054 4.97029 15.8763 4.97029 16.9239 5.02987C17.5418 5.0373 18.1538 5.15128 18.733 5.36679C19.1544 5.52958 19.537 5.77867 19.8564 6.09807C20.1758 6.41747 20.4249 6.80012 20.5877 7.22145C20.8006 7.80098 20.9145 8.41221 20.9246 9.02954C20.9712 10.0598 20.9831 10.349 20.9831 12.9891C20.9831 15.6281 20.9831 15.912 20.9365 16.9476H20.9246V16.9465Z" fill="#007399"/>
</svg>
