<svg width="26" height="26" viewBox="0 0 26 26" fill="none" xmlns="http://www.w3.org/2000/svg">
<path d="M21.269 8.6635C21.2831 8.85309 21.2831 9.04159 21.2831 9.23009C21.2831 14.9988 16.8924 21.6462 8.86813 21.6462C6.39596 21.6462 4.09929 20.9301 2.16663 19.6864C2.51763 19.7265 2.85563 19.7406 3.22071 19.7406C5.18478 19.7453 7.09324 19.0886 8.63846 17.8762C7.72783 17.8597 6.84508 17.5592 6.11347 17.0168C5.38185 16.4744 4.83789 15.717 4.55754 14.8504C4.82729 14.8905 5.09813 14.9176 5.38196 14.9176C5.77304 14.9176 6.16629 14.8634 6.53138 14.7692C5.54312 14.5696 4.65447 14.034 4.01655 13.2532C3.37862 12.4725 3.03079 11.495 3.03221 10.4868V10.4326C3.61396 10.7565 4.28888 10.9591 5.00388 10.9862C4.40489 10.5881 3.91374 10.048 3.57424 9.41403C3.23475 8.78003 3.05747 8.07185 3.05821 7.35267C3.05821 6.54234 3.27379 5.79917 3.65188 5.15134C4.74836 6.50011 6.11592 7.60353 7.66599 8.39013C9.21606 9.17674 10.9141 9.62899 12.65 9.71759C12.5829 9.39259 12.5417 9.05567 12.5417 8.71767C12.5414 8.14455 12.6541 7.57698 12.8733 7.04743C13.0925 6.51788 13.4139 6.03672 13.8192 5.63146C14.2244 5.2262 14.7056 4.90478 15.2351 4.68559C15.7647 4.46639 16.3323 4.35372 16.9054 4.354C18.162 4.354 19.2963 4.8805 20.0936 5.732C21.0705 5.54309 22.0074 5.18646 22.8626 4.67792C22.537 5.6863 21.8549 6.54137 20.944 7.08292C21.8105 6.9841 22.6573 6.75624 23.4563 6.40692C22.8595 7.27694 22.12 8.03988 21.269 8.6635Z" fill="#007399"/>
</svg>
