<svg xmlns="http://www.w3.org/2000/svg" width="20" height="20" viewBox="0 0 20 20" fill="none">
  <g clip-path="url(#clip0_2188_131)">
    <path d="M19.9555 10.9351H0.0449219V10.9354H19.9555V10.9351Z" fill="#C42126"/>
    <path d="M18.9178 5.47607H1.08203V5.47637H18.9178V5.47607Z" fill="#C42126"/>
    <path d="M19.6267 7.2959H0.373047V7.29619H19.6267V7.2959Z" fill="#C42126"/>
    <path d="M4.29751 18.213H15.7017L15.7023 18.2124H4.29688L4.29751 18.213Z" fill="#C42126"/>
    <path d="M9.99974 0C9.80332 0 9.60846 0.00709344 9.41504 0.0181558H10.5846C10.391 0.00709344 10.1962 0 9.99974 0Z" fill="#C42126"/>
    <path d="M19.958 9.11572H0.0410156V9.11602H19.958V9.11572Z" fill="#C42126"/>
    <path d="M12.9557 3.65702H17.7308C17.1636 2.96655 16.5044 2.35533 15.7741 1.83789H12.1885C12.4852 2.35989 12.7403 2.97584 12.9557 3.65702Z" fill="#E7E7E7"/>
    <path d="M12.1888 1.83766H15.7745C14.2921 0.787198 12.5125 0.129366 10.5852 0.0180664H10.2773C11.1845 0.132237 11.6011 0.803581 12.1888 1.83766Z" fill="#DC3027"/>
    <path d="M19.6276 7.29569C19.4498 6.66159 19.2114 6.0532 18.9183 5.47656H13.4248C13.5361 6.06063 13.6239 6.67071 13.689 7.29569H19.6276Z" fill="#E7E7E7"/>
    <path d="M13.1154 5.47665H18.9178C18.5871 4.82629 18.1899 4.216 17.7307 3.65723H12.6621C12.8408 4.22297 12.9926 4.83326 13.1154 5.47665Z" fill="#DC3027"/>
    <path d="M13.8984 10.935H19.9545C19.9833 10.6273 19.9995 10.3154 19.9995 10.0002C19.9995 9.70199 19.9839 9.40752 19.9583 9.11572H13.8999C13.9196 9.72078 13.9193 10.3303 13.8984 10.935Z" fill="#E7E7E7"/>
    <path d="M19.9591 9.11552C19.9043 8.4907 19.7917 7.88282 19.6274 7.29639H13.4336C13.4958 7.89211 13.5369 8.5016 13.5569 9.11552H19.9591Z" fill="#DC3027"/>
    <path d="M13.3203 14.5738H18.8921C19.1893 13.9978 19.4315 13.389 19.6131 12.7544H13.5897C13.5234 13.3803 13.4333 13.9903 13.3203 14.5738Z" fill="#E7E7E7"/>
    <path d="M19.6127 12.7542C19.7806 12.1679 19.8971 11.56 19.955 10.9351H13.7101C13.6888 11.5494 13.6465 12.1588 13.583 12.7542H19.6127Z" fill="#DC3027"/>
    <path d="M15.7029 18.2127C16.4438 17.6973 17.1123 17.0855 17.6884 16.3936H12.9966C12.7773 17.0776 12.5169 17.6925 12.2148 18.2127H15.7029Z" fill="#E7E7E7"/>
    <path d="M12.8203 16.3932H17.6887C18.1532 15.835 18.5565 15.2247 18.892 14.5737H13.2793C13.1548 15.2176 13.0014 15.8282 12.8203 16.3932Z" fill="#DC3027"/>
    <path d="M9.63778 19.9929C9.61756 19.9923 9.59737 19.9914 9.57715 19.9907C9.59737 19.9913 9.6176 19.9923 9.63778 19.9929Z" fill="#DC3027"/>
    <path d="M10 19.9996C12.1201 19.9996 14.0844 19.3379 15.7022 18.2129H12.0831C11.4408 19.3196 11.017 19.9996 10 19.9996Z" fill="#DC3027"/>
    <path d="M10.0001 19.9998C9.87862 19.9998 9.75799 19.9969 9.6377 19.9927C9.75925 19.9968 9.88001 19.9998 10.0001 19.9998Z" fill="#C42126"/>
    <path d="M12.5196 1.83789H4.22635C3.49594 2.35533 2.83688 2.96651 2.26953 3.65702H13.2867C13.0713 2.97584 12.8163 2.35989 12.5196 1.83789Z" fill="#F3F4F5"/>
    <path d="M4.22656 1.83766H12.5199C11.932 0.803581 11.1844 0.132237 10.2773 0.0180664H9.41563C7.48836 0.129366 5.70871 0.787198 4.22656 1.83766Z" fill="#E73625"/>
    <path d="M0.373047 7.29569H14.0039C13.9388 6.67058 13.851 6.06063 13.7397 5.47656H1.08231C0.789238 6.05324 0.550847 6.66159 0.373047 7.29569Z" fill="#F3F4F5"/>
    <path d="M2.26892 3.65674C1.81008 4.21552 1.41251 4.82576 1.08203 5.47616H13.7393C13.6166 4.8329 13.4649 4.22265 13.2861 3.65674H2.26892Z" fill="#E73625"/>
    <path d="M0 10.0001C0 10.3153 0.0164247 10.6271 0.0450096 10.9349H14.126C14.1468 10.3301 14.1471 9.72078 14.1274 9.11572H0.0412095C0.0156225 9.4074 0 9.70186 0 10.0001Z" fill="#F3F4F5"/>
    <path d="M0.0410156 9.11552H14.127C14.107 8.50147 14.0658 7.89215 14.0037 7.29639H0.372592C0.208218 7.88295 0.095652 8.4907 0.0410156 9.11552Z" fill="#E73625"/>
    <path d="M13.9992 12.7544H0.387695C0.569296 13.3891 0.811655 13.9978 1.10865 14.5738H13.7299C13.8429 13.9904 13.9327 13.3804 13.9992 12.7544Z" fill="#F3F4F5"/>
    <path d="M0.387223 12.7542H13.9988C14.0621 12.1588 14.1045 11.5493 14.1259 10.9351H0.0449219C0.102852 11.5602 0.219556 12.1679 0.387223 12.7542Z" fill="#E73625"/>
    <path d="M4.29705 18.2127H12.4887C12.7907 17.6924 13.0512 17.0776 13.2704 16.3936H2.31152C2.8877 17.0855 3.55604 17.6973 4.29705 18.2127Z" fill="#F3F4F5"/>
    <path d="M1.1084 14.5737C1.44394 15.2247 1.84717 15.835 2.31171 16.3932H13.2706C13.4516 15.8282 13.6049 15.2176 13.7294 14.5737H1.1084Z" fill="#E73625"/>
    <path d="M9.57677 19.9903C9.59699 19.991 9.61717 19.9919 9.6374 19.9925C9.75773 19.9968 9.87836 19.9996 9.99975 19.9996C11.0168 19.9996 11.846 19.3196 12.4885 18.2129H4.29785C5.80719 19.2626 7.61889 19.9087 9.57677 19.9903Z" fill="#E73625"/>
    <path d="M9.79362 0.00537109C4.66916 0.109619 0.492473 4.06628 0.0429688 9.09921H9.79379V0.00537109H9.79362Z" fill="#283991"/>
    <path d="M2.00144 5.66553L2.15378 6.13462H2.64736L2.24806 6.42469L2.40057 6.89413L2.00144 6.60389L1.60243 6.89413L1.75464 6.42469L1.35547 6.13462H1.84905L2.00144 5.66553Z" fill="#EFEFEF"/>
    <path d="M2.00144 7.32275L2.15378 7.79215H2.64736L2.24806 8.08222L2.40057 8.55165L2.00144 8.26141L1.60243 8.55165L1.75464 8.08222L1.35547 7.79215H1.84905L2.00144 7.32275Z" fill="#EFEFEF"/>
    <path d="M3.65883 3.1792L3.81121 3.64846H4.30463L3.90546 3.9387L4.05784 4.4078L3.65883 4.1179L3.25966 4.4078L3.41204 3.9387L3.0127 3.64846H3.50628L3.65883 3.1792Z" fill="#EFEFEF"/>
    <path d="M3.65883 4.83643L3.81121 5.30569H4.30463L3.90546 5.59559L4.05784 6.06503L3.65883 5.77512L3.25966 6.06503L3.41204 5.59559L3.0127 5.30569H3.50628L3.65883 4.83643Z" fill="#EFEFEF"/>
    <path d="M3.65883 6.49414L3.81121 6.96357H4.30463L3.90546 7.25331L4.05784 7.72274L3.65883 7.43254L3.25966 7.72274L3.41204 7.25331L3.0127 6.96357H3.50628L3.65883 6.49414Z" fill="#EFEFEF"/>
    <path d="M0.742845 7.72278L0.590336 7.25334L0.989511 6.96344H0.496221L0.485159 6.9292C0.430987 7.09674 0.38205 7.26631 0.336914 7.43777L0.343881 7.43258L0.742845 7.72278Z" fill="#EFEFEF"/>
    <path d="M1.60209 5.23654L2.0011 4.94634L2.40027 5.23654L2.24776 4.76711L2.64694 4.47691H2.15335L2.00097 4.00781L1.84859 4.47691H1.66669C1.63291 4.52808 1.60023 4.57955 1.56738 4.63149L1.75435 4.76711L1.60209 5.23654Z" fill="#EFEFEF"/>
    <path d="M3.65928 2.46011L4.05828 2.75002L3.9059 2.28092L4.30491 1.99072H4.0199C3.77784 2.17169 3.54431 2.36321 3.31993 2.56529L3.25977 2.75002L3.65928 2.46011Z" fill="#EFEFEF"/>
    <path d="M4.91699 1.92162L5.31617 1.63142L5.71517 1.92162L5.56279 1.45219L5.9618 1.16229H5.46838L5.44769 1.09912C5.28049 1.18454 5.11502 1.27342 4.9533 1.368L5.06921 1.45215L4.91699 1.92162Z" fill="#EFEFEF"/>
    <path d="M5.31602 2.35059L5.4684 2.81956H5.96182L5.56264 3.10975L5.71502 3.57919L5.31602 3.28895L4.91684 3.57919L5.06922 3.10975L4.66992 2.81956H5.16347L5.31602 2.35059Z" fill="#EFEFEF"/>
    <path d="M5.31602 4.00781L5.4684 4.47678H5.96182L5.56264 4.76698L5.71502 5.23641L5.31602 4.94617L4.91684 5.23641L5.06922 4.76698L4.66992 4.47678H5.16347L5.31602 4.00781Z" fill="#EFEFEF"/>
    <path d="M5.31602 5.66553L5.4684 6.13462H5.96182L5.56264 6.42469L5.71502 6.89413L5.31602 6.60389L4.91684 6.89413L5.06922 6.42469L4.66992 6.13462H5.16347L5.31602 5.66553Z" fill="#EFEFEF"/>
    <path d="M5.31602 7.32275L5.4684 7.79215H5.96182L5.56264 8.08222L5.71502 8.55165L5.31602 8.26141L4.91684 8.55165L5.06922 8.08222L4.66992 7.79215H5.16347L5.31602 7.32275Z" fill="#EFEFEF"/>
    <path d="M6.97422 1.52148L7.1266 1.99075H7.62002L7.22101 2.28099L7.37323 2.75009L6.97422 2.46018L6.57492 2.75009L6.72743 2.28099L6.32812 1.99075H6.82167L6.97422 1.52148Z" fill="#EFEFEF"/>
    <path d="M6.97422 3.1792L7.1266 3.64846H7.62002L7.22101 3.9387L7.37323 4.4078L6.97422 4.1179L6.57492 4.4078L6.72743 3.9387L6.32812 3.64846H6.82167L6.97422 3.1792Z" fill="#EFEFEF"/>
    <path d="M6.97422 4.83643L7.1266 5.30569H7.62002L7.22101 5.59559L7.37323 6.06503L6.97422 5.77512L6.57492 6.06503L6.72743 5.59559L6.32812 5.30569H6.82167L6.97422 4.83643Z" fill="#EFEFEF"/>
    <path d="M6.97422 6.49414L7.1266 6.96357H7.62002L7.22101 7.25331L7.37323 7.72274L6.97422 7.43254L6.57492 7.72274L6.72743 7.25331L6.32812 6.96357H6.82167L6.97422 6.49414Z" fill="#EFEFEF"/>
    <path d="M8.63145 0.692871L8.78383 1.16214H9.27724L8.87807 1.45204L9.03045 1.92147L8.63145 1.63123L8.23214 1.92147L8.38465 1.45204L7.98535 1.16214H8.47877L8.63145 0.692871Z" fill="#EFEFEF"/>
    <path d="M8.63145 2.35059L8.78383 2.81956H9.27724L8.87807 3.10975L9.03045 3.57919L8.63145 3.28895L8.23214 3.57919L8.38465 3.10975L7.98535 2.81956H8.47877L8.63145 2.35059Z" fill="#EFEFEF"/>
    <path d="M8.63145 4.00781L8.78383 4.47678H9.27724L8.87807 4.76698L9.03045 5.23641L8.63145 4.94617L8.23214 5.23641L8.38465 4.76698L7.98535 4.47678H8.47877L8.63145 4.00781Z" fill="#EFEFEF"/>
    <path d="M8.63145 5.66553L8.78383 6.13462H9.27724L8.87807 6.42469L9.03045 6.89413L8.63145 6.60389L8.23214 6.89413L8.38465 6.42469L7.98535 6.13462H8.47877L8.63145 5.66553Z" fill="#EFEFEF"/>
    <path d="M8.63145 7.32275L8.78383 7.79215H9.27724L8.87807 8.08222L9.03045 8.55165L8.63145 8.26141L8.23214 8.55165L8.38465 8.08222L7.98535 7.79215H8.47877L8.63145 7.32275Z" fill="#EFEFEF"/>
  </g>
  <defs>
    <clipPath id="clip0_2188_131">
      <rect width="20" height="20" rx="10" fill="white"/>
    </clipPath>
  </defs>
</svg>