<svg width="26" height="26" viewBox="0 0 26 26" fill="none" xmlns="http://www.w3.org/2000/svg">
<g filter="url(#filter0_d_542_192)">
<g clip-path="url(#clip0_542_192)">
<path d="M22.956 12.9353H3.04541V12.9356H22.956V12.9353Z" fill="#C42126"/>
<path d="M21.9183 7.47632H4.08252V7.47661H21.9183V7.47632Z" fill="#C42126"/>
<path d="M22.6267 9.29565H3.37305V9.29595H22.6267V9.29565Z" fill="#C42126"/>
<path d="M7.298 20.2133H18.7022L18.7028 20.2126H7.29736L7.298 20.2133Z" fill="#C42126"/>
<path d="M13.0002 2C12.8038 2 12.609 2.00709 12.4155 2.01816H13.5851C13.3915 2.00709 13.1967 2 13.0002 2Z" fill="#C42126"/>
<path d="M22.9585 11.1155H3.0415V11.1158H22.9585V11.1155Z" fill="#C42126"/>
<path d="M15.9557 5.65678H20.7308C20.1636 4.96631 19.5044 4.35509 18.7741 3.83765H15.1885C15.4852 4.35965 15.7403 4.97559 15.9557 5.65678Z" fill="#E7E7E7"/>
<path d="M15.1883 3.83766H18.774C17.2917 2.7872 15.512 2.12937 13.5847 2.01807H13.2769C14.184 2.13224 14.6006 2.80358 15.1883 3.83766Z" fill="#DC3027"/>
<path d="M22.6271 9.29594C22.4493 8.66183 22.2109 8.05344 21.9178 7.47681H16.4243C16.5356 8.06088 16.6234 8.67095 16.6885 9.29594H22.6271Z" fill="#E7E7E7"/>
<path d="M16.1154 7.47641H21.9178C21.5871 6.82605 21.1899 6.21576 20.7307 5.65698H15.6621C15.8408 6.22273 15.9926 6.83302 16.1154 7.47641Z" fill="#DC3027"/>
<path d="M16.8989 12.935H22.955C22.9837 12.6273 23 12.3154 23 12.0002C23 11.702 22.9844 11.4075 22.9588 11.1157H16.9004C16.9201 11.7208 16.9197 12.3303 16.8989 12.935Z" fill="#E7E7E7"/>
<path d="M22.9591 11.1153C22.9043 10.4905 22.7917 9.88258 22.6274 9.29614H16.4336C16.4958 9.89186 16.5369 10.5014 16.5569 11.1153H22.9591Z" fill="#DC3027"/>
<path d="M16.3198 16.5738H21.8916C22.1888 15.9978 22.431 15.389 22.6126 14.7544H16.5892C16.5229 15.3803 16.4329 15.9903 16.3198 16.5738Z" fill="#E7E7E7"/>
<path d="M22.6127 14.7544C22.7806 14.1682 22.8971 13.5603 22.955 12.9353H16.7101C16.6888 13.5497 16.6465 14.159 16.583 14.7544H22.6127Z" fill="#DC3027"/>
<path d="M18.7029 20.2127C19.4438 19.6973 20.1123 19.0855 20.6884 18.3936H15.9966C15.7773 19.0776 15.5169 19.6925 15.2148 20.2127H18.7029Z" fill="#E7E7E7"/>
<path d="M15.8203 18.3934H20.6887C21.1532 17.8353 21.5565 17.225 21.892 16.574H16.2793C16.1548 17.2178 16.0014 17.8284 15.8203 18.3934Z" fill="#DC3027"/>
<path d="M12.6378 21.9929C12.6176 21.9923 12.5974 21.9914 12.5771 21.9907C12.5974 21.9913 12.6176 21.9923 12.6378 21.9929Z" fill="#DC3027"/>
<path d="M13 22.0001C15.1201 22.0001 17.0844 21.3384 18.7022 20.2134H15.0831C14.4408 21.32 14.017 22.0001 13 22.0001Z" fill="#DC3027"/>
<path d="M13.0001 22C12.8786 22 12.758 21.9972 12.6377 21.9929C12.7593 21.997 12.88 22 13.0001 22Z" fill="#C42126"/>
<path d="M15.5196 3.83765H7.22635C6.49594 4.35509 5.83688 4.96626 5.26953 5.65678H16.2867C16.0713 4.97559 15.8163 4.35965 15.5196 3.83765Z" fill="#F3F4F5"/>
<path d="M7.22607 3.83766H15.5194C14.9315 2.80358 14.1839 2.13224 13.2768 2.01807H12.4151C10.4879 2.12937 8.70822 2.7872 7.22607 3.83766Z" fill="#E73625"/>
<path d="M3.37305 9.29594H17.0039C16.9388 8.67083 16.851 8.06088 16.7397 7.47681H4.08231C3.78924 8.05349 3.55085 8.66183 3.37305 9.29594Z" fill="#F3F4F5"/>
<path d="M5.2694 5.65698C4.81057 6.21576 4.413 6.82601 4.08252 7.47641H16.7398C16.6171 6.83314 16.4653 6.2229 16.2866 5.65698H5.2694Z" fill="#E73625"/>
<path d="M3 12.0001C3 12.3153 3.01642 12.6271 3.04501 12.9349H17.126C17.1468 12.3301 17.1471 11.7208 17.1274 11.1157H3.04121C3.01562 11.4074 3 11.7019 3 12.0001Z" fill="#F3F4F5"/>
<path d="M3.0415 11.1153H17.1275C17.1075 10.5012 17.0663 9.89191 17.0042 9.29614H3.37308C3.20871 9.8827 3.09614 10.4905 3.0415 11.1153Z" fill="#E73625"/>
<path d="M16.9988 14.7544H3.38721C3.56881 15.3891 3.81117 15.9978 4.10816 16.5738H16.7294C16.8425 15.9904 16.9323 15.3804 16.9988 14.7544Z" fill="#F3F4F5"/>
<path d="M3.38722 14.7544H16.9988C17.0621 14.159 17.1045 13.5495 17.1259 12.9353H3.04492C3.10285 13.5604 3.21956 14.1682 3.38722 14.7544Z" fill="#E73625"/>
<path d="M7.29754 20.2127H15.4892C15.7912 19.6924 16.0517 19.0776 16.2709 18.3936H5.31201C5.88818 19.0855 6.55653 19.6973 7.29754 20.2127Z" fill="#F3F4F5"/>
<path d="M4.1084 16.574C4.44394 17.225 4.84717 17.8353 5.31171 18.3934H16.2706C16.4516 17.8285 16.6049 17.2179 16.7294 16.574H4.1084Z" fill="#E73625"/>
<path d="M12.5768 21.9908C12.597 21.9915 12.6172 21.9924 12.6374 21.993C12.7577 21.9973 12.8784 22.0001 12.9998 22.0001C14.0168 22.0001 14.846 21.3201 15.4885 20.2134H7.29785C8.80719 21.2631 10.6189 21.9092 12.5768 21.9908Z" fill="#E73625"/>
<path d="M12.7931 2.00513C7.66867 2.10938 3.49199 6.06604 3.04248 11.099H12.7933V2.00513H12.7931Z" fill="#283991"/>
<path d="M5.00095 7.66577L5.15329 8.13487H5.64687L5.24757 8.42494L5.40008 8.89437L5.00095 8.60413L4.60194 8.89437L4.75416 8.42494L4.35498 8.13487H4.84857L5.00095 7.66577Z" fill="#EFEFEF"/>
<path d="M5.00095 9.32324L5.15329 9.79263H5.64687L5.24757 10.0827L5.40008 10.5521L5.00095 10.2619L4.60194 10.5521L4.75416 10.0827L4.35498 9.79263H4.84857L5.00095 9.32324Z" fill="#EFEFEF"/>
<path d="M6.65834 5.17944L6.81073 5.64871H7.30414L6.90497 5.93895L7.05735 6.40804L6.65834 6.11814L6.25917 6.40804L6.41155 5.93895L6.01221 5.64871H6.50579L6.65834 5.17944Z" fill="#EFEFEF"/>
<path d="M6.65834 6.83691L6.81073 7.30618H7.30414L6.90497 7.59608L7.05735 8.06551L6.65834 7.77561L6.25917 8.06551L6.41155 7.59608L6.01221 7.30618H6.50579L6.65834 6.83691Z" fill="#EFEFEF"/>
<path d="M6.65834 8.49438L6.81073 8.96382H7.30414L6.90497 9.25355L7.05735 9.72299L6.65834 9.43279L6.25917 9.72299L6.41155 9.25355L6.01221 8.96382H6.50579L6.65834 8.49438Z" fill="#EFEFEF"/>
<path d="M3.74236 9.72302L3.58985 9.25359L3.98902 8.96369H3.49573L3.48467 8.92944C3.4305 9.09698 3.38156 9.26655 3.33643 9.43802L3.34339 9.43282L3.74236 9.72302Z" fill="#EFEFEF"/>
<path d="M4.6016 7.23678L5.00061 6.94659L5.39978 7.23678L5.24727 6.76735L5.64645 6.47715H5.15286L5.00048 6.00806L4.8481 6.47715H4.6662C4.63242 6.52833 4.59974 6.5798 4.56689 6.63173L4.75386 6.76735L4.6016 7.23678Z" fill="#EFEFEF"/>
<path d="M6.6583 4.46036L7.05731 4.75026L6.90493 4.28116L7.30393 3.99097H7.01893C6.77686 4.17193 6.54333 4.36346 6.31896 4.56554L6.25879 4.75026L6.6583 4.46036Z" fill="#EFEFEF"/>
<path d="M7.91699 3.92162L8.31617 3.63142L8.71517 3.92162L8.56279 3.45219L8.9618 3.16229H8.46838L8.44769 3.09912C8.28049 3.18454 8.11502 3.27342 7.9533 3.368L8.06921 3.45215L7.91699 3.92162Z" fill="#EFEFEF"/>
<path d="M8.31602 4.35059L8.4684 4.81956H8.96182L8.56264 5.10975L8.71502 5.57919L8.31602 5.28895L7.91684 5.57919L8.06922 5.10975L7.66992 4.81956H8.16347L8.31602 4.35059Z" fill="#EFEFEF"/>
<path d="M8.31602 6.0083L8.4684 6.47727H8.96182L8.56264 6.76747L8.71502 7.2369L8.31602 6.94666L7.91684 7.2369L8.06922 6.76747L7.66992 6.47727H8.16347L8.31602 6.0083Z" fill="#EFEFEF"/>
<path d="M8.31602 7.66577L8.4684 8.13487H8.96182L8.56264 8.42494L8.71502 8.89437L8.31602 8.60413L7.91684 8.89437L8.06922 8.42494L7.66992 8.13487H8.16347L8.31602 7.66577Z" fill="#EFEFEF"/>
<path d="M8.31602 9.32324L8.4684 9.79263H8.96182L8.56264 10.0827L8.71502 10.5521L8.31602 10.2619L7.91684 10.5521L8.06922 10.0827L7.66992 9.79263H8.16347L8.31602 9.32324Z" fill="#EFEFEF"/>
<path d="M9.97373 3.52173L10.1261 3.99099H10.6195L10.2205 4.28123L10.3727 4.75033L9.97373 4.46043L9.57443 4.75033L9.72694 4.28123L9.32764 3.99099H9.82118L9.97373 3.52173Z" fill="#EFEFEF"/>
<path d="M9.97373 5.17944L10.1261 5.64871H10.6195L10.2205 5.93895L10.3727 6.40804L9.97373 6.11814L9.57443 6.40804L9.72694 5.93895L9.32764 5.64871H9.82118L9.97373 5.17944Z" fill="#EFEFEF"/>
<path d="M9.97373 6.83691L10.1261 7.30618H10.6195L10.2205 7.59608L10.3727 8.06551L9.97373 7.77561L9.57443 8.06551L9.72694 7.59608L9.32764 7.30618H9.82118L9.97373 6.83691Z" fill="#EFEFEF"/>
<path d="M9.97373 8.49438L10.1261 8.96382H10.6195L10.2205 9.25355L10.3727 9.72299L9.97373 9.43279L9.57443 9.72299L9.72694 9.25355L9.32764 8.96382H9.82118L9.97373 8.49438Z" fill="#EFEFEF"/>
<path d="M11.631 2.69312L11.7833 3.16238H12.2768L11.8776 3.45228L12.03 3.92172L11.631 3.63148L11.2317 3.92172L11.3842 3.45228L10.9849 3.16238H11.4783L11.631 2.69312Z" fill="#EFEFEF"/>
<path d="M11.631 4.35059L11.7833 4.81956H12.2768L11.8776 5.10975L12.03 5.57919L11.631 5.28895L11.2317 5.57919L11.3842 5.10975L10.9849 4.81956H11.4783L11.631 4.35059Z" fill="#EFEFEF"/>
<path d="M11.631 6.0083L11.7833 6.47727H12.2768L11.8776 6.76747L12.03 7.2369L11.631 6.94666L11.2317 7.2369L11.3842 6.76747L10.9849 6.47727H11.4783L11.631 6.0083Z" fill="#EFEFEF"/>
<path d="M11.631 7.66577L11.7833 8.13487H12.2768L11.8776 8.42494L12.03 8.89437L11.631 8.60413L11.2317 8.89437L11.3842 8.42494L10.9849 8.13487H11.4783L11.631 7.66577Z" fill="#EFEFEF"/>
<path d="M11.631 9.32324L11.7833 9.79263H12.2768L11.8776 10.0827L12.03 10.5521L11.631 10.2619L11.2317 10.5521L11.3842 10.0827L10.9849 9.79263H11.4783L11.631 9.32324Z" fill="#EFEFEF"/>
</g>
</g>
<defs>
<filter id="filter0_d_542_192" x="0" y="0" width="26" height="26" filterUnits="userSpaceOnUse" color-interpolation-filters="sRGB">
<feFlood flood-opacity="0" result="BackgroundImageFix"/>
<feColorMatrix in="SourceAlpha" type="matrix" values="0 0 0 0 0 0 0 0 0 0 0 0 0 0 0 0 0 0 127 0" result="hardAlpha"/>
<feOffset dy="1"/>
<feGaussianBlur stdDeviation="1.5"/>
<feComposite in2="hardAlpha" operator="out"/>
<feColorMatrix type="matrix" values="0 0 0 0 0 0 0 0 0 0 0 0 0 0 0 0 0 0 0.25 0"/>
<feBlend mode="normal" in2="BackgroundImageFix" result="effect1_dropShadow_542_192"/>
<feBlend mode="normal" in="SourceGraphic" in2="effect1_dropShadow_542_192" result="shape"/>
</filter>
<clipPath id="clip0_542_192">
<rect x="3" y="2" width="20" height="20" rx="10" fill="white"/>
</clipPath>
</defs>
</svg>
